<?xml version="1.0" encoding="utf-8" standalone="no"?>
<!DOCTYPE svg PUBLIC "-//W3C//DTD SVG 1.1//EN"
  "http://www.w3.org/Graphics/SVG/1.1/DTD/svg11.dtd">
<svg xmlns:xlink="http://www.w3.org/1999/xlink" width="460.8pt" height="345.6pt" viewBox="0 0 460.8 345.6" xmlns="http://www.w3.org/2000/svg" version="1.1">
 <metadata>
  <rdf:RDF xmlns:dc="http://purl.org/dc/elements/1.1/" xmlns:cc="http://creativecommons.org/ns#" xmlns:rdf="http://www.w3.org/1999/02/22-rdf-syntax-ns#">
   <cc:Work>
    <dc:type rdf:resource="http://purl.org/dc/dcmitype/StillImage"/>
    <dc:date>2025-05-27T20:20:51.053636</dc:date>
    <dc:format>image/svg+xml</dc:format>
    <dc:creator>
     <cc:Agent>
      <dc:title>Matplotlib v3.10.0, https://matplotlib.org/</dc:title>
     </cc:Agent>
    </dc:creator>
   </cc:Work>
  </rdf:RDF>
 </metadata>
 <defs>
  <style type="text/css">*{stroke-linejoin: round; stroke-linecap: butt}</style>
 </defs>
 <g id="figure_1">
  <g id="patch_1">
   <path d="M 0 345.6 
L 460.8 345.6 
L 460.8 0 
L 0 0 
z
" style="fill: #ffffff"/>
  </g>
  <g id="axes_1">
   <g id="patch_2">
    <path d="M 57.6 307.584 
L 414.72 307.584 
L 414.72 41.472 
L 57.6 41.472 
z
" style="fill: #ffffff"/>
   </g>
   <g id="matplotlib.axis_1">
    <g id="xtick_1">
     <g id="line2d_1">
      <defs>
       <path id="m6f2103cfa8" d="M 0 0 
L 0 3.5 
" style="stroke: #000000; stroke-width: 0.8"/>
      </defs>
      <g>
       <use xlink:href="#m6f2103cfa8" x="73.832727" y="307.584" style="stroke: #000000; stroke-width: 0.8"/>
      </g>
     </g>
     <g id="text_1">
      <!-- 0 -->
      <g transform="translate(70.651477 322.182437) scale(0.1 -0.1)">
       <defs>
        <path id="DejaVuSans-30" d="M 2034 4250 
Q 1547 4250 1301 3770 
Q 1056 3291 1056 2328 
Q 1056 1369 1301 889 
Q 1547 409 2034 409 
Q 2525 409 2770 889 
Q 3016 1369 3016 2328 
Q 3016 3291 2770 3770 
Q 2525 4250 2034 4250 
z
M 2034 4750 
Q 2819 4750 3233 4129 
Q 3647 3509 3647 2328 
Q 3647 1150 3233 529 
Q 2819 -91 2034 -91 
Q 1250 -91 836 529 
Q 422 1150 422 2328 
Q 422 3509 836 4129 
Q 1250 4750 2034 4750 
z
" transform="scale(0.015625)"/>
       </defs>
       <use xlink:href="#DejaVuSans-30"/>
      </g>
     </g>
    </g>
    <g id="xtick_2">
     <g id="line2d_2">
      <g>
       <use xlink:href="#m6f2103cfa8" x="116.215827" y="307.584" style="stroke: #000000; stroke-width: 0.8"/>
      </g>
     </g>
     <g id="text_2">
      <!-- 50 -->
      <g transform="translate(109.853327 322.182437) scale(0.1 -0.1)">
       <defs>
        <path id="DejaVuSans-35" d="M 691 4666 
L 3169 4666 
L 3169 4134 
L 1269 4134 
L 1269 2991 
Q 1406 3038 1543 3061 
Q 1681 3084 1819 3084 
Q 2600 3084 3056 2656 
Q 3513 2228 3513 1497 
Q 3513 744 3044 326 
Q 2575 -91 1722 -91 
Q 1428 -91 1123 -41 
Q 819 9 494 109 
L 494 744 
Q 775 591 1075 516 
Q 1375 441 1709 441 
Q 2250 441 2565 725 
Q 2881 1009 2881 1497 
Q 2881 1984 2565 2268 
Q 2250 2553 1709 2553 
Q 1456 2553 1204 2497 
Q 953 2441 691 2322 
L 691 4666 
z
" transform="scale(0.015625)"/>
       </defs>
       <use xlink:href="#DejaVuSans-35"/>
       <use xlink:href="#DejaVuSans-30" transform="translate(63.623047 0)"/>
      </g>
     </g>
    </g>
    <g id="xtick_3">
     <g id="line2d_3">
      <g>
       <use xlink:href="#m6f2103cfa8" x="158.598927" y="307.584" style="stroke: #000000; stroke-width: 0.8"/>
      </g>
     </g>
     <g id="text_3">
      <!-- 100 -->
      <g transform="translate(149.055177 322.182437) scale(0.1 -0.1)">
       <defs>
        <path id="DejaVuSans-31" d="M 794 531 
L 1825 531 
L 1825 4091 
L 703 3866 
L 703 4441 
L 1819 4666 
L 2450 4666 
L 2450 531 
L 3481 531 
L 3481 0 
L 794 0 
L 794 531 
z
" transform="scale(0.015625)"/>
       </defs>
       <use xlink:href="#DejaVuSans-31"/>
       <use xlink:href="#DejaVuSans-30" transform="translate(63.623047 0)"/>
       <use xlink:href="#DejaVuSans-30" transform="translate(127.246094 0)"/>
      </g>
     </g>
    </g>
    <g id="xtick_4">
     <g id="line2d_4">
      <g>
       <use xlink:href="#m6f2103cfa8" x="200.982027" y="307.584" style="stroke: #000000; stroke-width: 0.8"/>
      </g>
     </g>
     <g id="text_4">
      <!-- 150 -->
      <g transform="translate(191.438277 322.182437) scale(0.1 -0.1)">
       <use xlink:href="#DejaVuSans-31"/>
       <use xlink:href="#DejaVuSans-35" transform="translate(63.623047 0)"/>
       <use xlink:href="#DejaVuSans-30" transform="translate(127.246094 0)"/>
      </g>
     </g>
    </g>
    <g id="xtick_5">
     <g id="line2d_5">
      <g>
       <use xlink:href="#m6f2103cfa8" x="243.365127" y="307.584" style="stroke: #000000; stroke-width: 0.8"/>
      </g>
     </g>
     <g id="text_5">
      <!-- 200 -->
      <g transform="translate(233.821377 322.182437) scale(0.1 -0.1)">
       <defs>
        <path id="DejaVuSans-32" d="M 1228 531 
L 3431 531 
L 3431 0 
L 469 0 
L 469 531 
Q 828 903 1448 1529 
Q 2069 2156 2228 2338 
Q 2531 2678 2651 2914 
Q 2772 3150 2772 3378 
Q 2772 3750 2511 3984 
Q 2250 4219 1831 4219 
Q 1534 4219 1204 4116 
Q 875 4013 500 3803 
L 500 4441 
Q 881 4594 1212 4672 
Q 1544 4750 1819 4750 
Q 2544 4750 2975 4387 
Q 3406 4025 3406 3419 
Q 3406 3131 3298 2873 
Q 3191 2616 2906 2266 
Q 2828 2175 2409 1742 
Q 1991 1309 1228 531 
z
" transform="scale(0.015625)"/>
       </defs>
       <use xlink:href="#DejaVuSans-32"/>
       <use xlink:href="#DejaVuSans-30" transform="translate(63.623047 0)"/>
       <use xlink:href="#DejaVuSans-30" transform="translate(127.246094 0)"/>
      </g>
     </g>
    </g>
    <g id="xtick_6">
     <g id="line2d_6">
      <g>
       <use xlink:href="#m6f2103cfa8" x="285.748227" y="307.584" style="stroke: #000000; stroke-width: 0.8"/>
      </g>
     </g>
     <g id="text_6">
      <!-- 250 -->
      <g transform="translate(276.204477 322.182437) scale(0.1 -0.1)">
       <use xlink:href="#DejaVuSans-32"/>
       <use xlink:href="#DejaVuSans-35" transform="translate(63.623047 0)"/>
       <use xlink:href="#DejaVuSans-30" transform="translate(127.246094 0)"/>
      </g>
     </g>
    </g>
    <g id="xtick_7">
     <g id="line2d_7">
      <g>
       <use xlink:href="#m6f2103cfa8" x="328.131327" y="307.584" style="stroke: #000000; stroke-width: 0.8"/>
      </g>
     </g>
     <g id="text_7">
      <!-- 300 -->
      <g transform="translate(318.587577 322.182437) scale(0.1 -0.1)">
       <defs>
        <path id="DejaVuSans-33" d="M 2597 2516 
Q 3050 2419 3304 2112 
Q 3559 1806 3559 1356 
Q 3559 666 3084 287 
Q 2609 -91 1734 -91 
Q 1441 -91 1130 -33 
Q 819 25 488 141 
L 488 750 
Q 750 597 1062 519 
Q 1375 441 1716 441 
Q 2309 441 2620 675 
Q 2931 909 2931 1356 
Q 2931 1769 2642 2001 
Q 2353 2234 1838 2234 
L 1294 2234 
L 1294 2753 
L 1863 2753 
Q 2328 2753 2575 2939 
Q 2822 3125 2822 3475 
Q 2822 3834 2567 4026 
Q 2313 4219 1838 4219 
Q 1578 4219 1281 4162 
Q 984 4106 628 3988 
L 628 4550 
Q 988 4650 1302 4700 
Q 1616 4750 1894 4750 
Q 2613 4750 3031 4423 
Q 3450 4097 3450 3541 
Q 3450 3153 3228 2886 
Q 3006 2619 2597 2516 
z
" transform="scale(0.015625)"/>
       </defs>
       <use xlink:href="#DejaVuSans-33"/>
       <use xlink:href="#DejaVuSans-30" transform="translate(63.623047 0)"/>
       <use xlink:href="#DejaVuSans-30" transform="translate(127.246094 0)"/>
      </g>
     </g>
    </g>
    <g id="xtick_8">
     <g id="line2d_8">
      <g>
       <use xlink:href="#m6f2103cfa8" x="370.514427" y="307.584" style="stroke: #000000; stroke-width: 0.8"/>
      </g>
     </g>
     <g id="text_8">
      <!-- 350 -->
      <g transform="translate(360.970677 322.182437) scale(0.1 -0.1)">
       <use xlink:href="#DejaVuSans-33"/>
       <use xlink:href="#DejaVuSans-35" transform="translate(63.623047 0)"/>
       <use xlink:href="#DejaVuSans-30" transform="translate(127.246094 0)"/>
      </g>
     </g>
    </g>
    <g id="xtick_9">
     <g id="line2d_9">
      <g>
       <use xlink:href="#m6f2103cfa8" x="412.897527" y="307.584" style="stroke: #000000; stroke-width: 0.8"/>
      </g>
     </g>
     <g id="text_9">
      <!-- 400 -->
      <g transform="translate(403.353777 322.182437) scale(0.1 -0.1)">
       <defs>
        <path id="DejaVuSans-34" d="M 2419 4116 
L 825 1625 
L 2419 1625 
L 2419 4116 
z
M 2253 4666 
L 3047 4666 
L 3047 1625 
L 3713 1625 
L 3713 1100 
L 3047 1100 
L 3047 0 
L 2419 0 
L 2419 1100 
L 313 1100 
L 313 1709 
L 2253 4666 
z
" transform="scale(0.015625)"/>
       </defs>
       <use xlink:href="#DejaVuSans-34"/>
       <use xlink:href="#DejaVuSans-30" transform="translate(63.623047 0)"/>
       <use xlink:href="#DejaVuSans-30" transform="translate(127.246094 0)"/>
      </g>
     </g>
    </g>
   </g>
   <g id="matplotlib.axis_2">
    <g id="ytick_1">
     <g id="line2d_10">
      <defs>
       <path id="m702c6c6d3b" d="M 0 0 
L -3.5 0 
" style="stroke: #000000; stroke-width: 0.8"/>
      </defs>
      <g>
       <use xlink:href="#m702c6c6d3b" x="57.6" y="289.257767" style="stroke: #000000; stroke-width: 0.8"/>
      </g>
     </g>
     <g id="text_10">
      <!-- 0.800 -->
      <g transform="translate(21.971875 293.056986) scale(0.1 -0.1)">
       <defs>
        <path id="DejaVuSans-2e" d="M 684 794 
L 1344 794 
L 1344 0 
L 684 0 
L 684 794 
z
" transform="scale(0.015625)"/>
        <path id="DejaVuSans-38" d="M 2034 2216 
Q 1584 2216 1326 1975 
Q 1069 1734 1069 1313 
Q 1069 891 1326 650 
Q 1584 409 2034 409 
Q 2484 409 2743 651 
Q 3003 894 3003 1313 
Q 3003 1734 2745 1975 
Q 2488 2216 2034 2216 
z
M 1403 2484 
Q 997 2584 770 2862 
Q 544 3141 544 3541 
Q 544 4100 942 4425 
Q 1341 4750 2034 4750 
Q 2731 4750 3128 4425 
Q 3525 4100 3525 3541 
Q 3525 3141 3298 2862 
Q 3072 2584 2669 2484 
Q 3125 2378 3379 2068 
Q 3634 1759 3634 1313 
Q 3634 634 3220 271 
Q 2806 -91 2034 -91 
Q 1263 -91 848 271 
Q 434 634 434 1313 
Q 434 1759 690 2068 
Q 947 2378 1403 2484 
z
M 1172 3481 
Q 1172 3119 1398 2916 
Q 1625 2713 2034 2713 
Q 2441 2713 2670 2916 
Q 2900 3119 2900 3481 
Q 2900 3844 2670 4047 
Q 2441 4250 2034 4250 
Q 1625 4250 1398 4047 
Q 1172 3844 1172 3481 
z
" transform="scale(0.015625)"/>
       </defs>
       <use xlink:href="#DejaVuSans-30"/>
       <use xlink:href="#DejaVuSans-2e" transform="translate(63.623047 0)"/>
       <use xlink:href="#DejaVuSans-38" transform="translate(95.410156 0)"/>
       <use xlink:href="#DejaVuSans-30" transform="translate(159.033203 0)"/>
       <use xlink:href="#DejaVuSans-30" transform="translate(222.65625 0)"/>
      </g>
     </g>
    </g>
    <g id="ytick_2">
     <g id="line2d_11">
      <g>
       <use xlink:href="#m702c6c6d3b" x="57.6" y="255.405527" style="stroke: #000000; stroke-width: 0.8"/>
      </g>
     </g>
     <g id="text_11">
      <!-- 0.825 -->
      <g transform="translate(21.971875 259.204746) scale(0.1 -0.1)">
       <use xlink:href="#DejaVuSans-30"/>
       <use xlink:href="#DejaVuSans-2e" transform="translate(63.623047 0)"/>
       <use xlink:href="#DejaVuSans-38" transform="translate(95.410156 0)"/>
       <use xlink:href="#DejaVuSans-32" transform="translate(159.033203 0)"/>
       <use xlink:href="#DejaVuSans-35" transform="translate(222.65625 0)"/>
      </g>
     </g>
    </g>
    <g id="ytick_3">
     <g id="line2d_12">
      <g>
       <use xlink:href="#m702c6c6d3b" x="57.6" y="221.553287" style="stroke: #000000; stroke-width: 0.8"/>
      </g>
     </g>
     <g id="text_12">
      <!-- 0.850 -->
      <g transform="translate(21.971875 225.352506) scale(0.1 -0.1)">
       <use xlink:href="#DejaVuSans-30"/>
       <use xlink:href="#DejaVuSans-2e" transform="translate(63.623047 0)"/>
       <use xlink:href="#DejaVuSans-38" transform="translate(95.410156 0)"/>
       <use xlink:href="#DejaVuSans-35" transform="translate(159.033203 0)"/>
       <use xlink:href="#DejaVuSans-30" transform="translate(222.65625 0)"/>
      </g>
     </g>
    </g>
    <g id="ytick_4">
     <g id="line2d_13">
      <g>
       <use xlink:href="#m702c6c6d3b" x="57.6" y="187.701047" style="stroke: #000000; stroke-width: 0.8"/>
      </g>
     </g>
     <g id="text_13">
      <!-- 0.875 -->
      <g transform="translate(21.971875 191.500266) scale(0.1 -0.1)">
       <defs>
        <path id="DejaVuSans-37" d="M 525 4666 
L 3525 4666 
L 3525 4397 
L 1831 0 
L 1172 0 
L 2766 4134 
L 525 4134 
L 525 4666 
z
" transform="scale(0.015625)"/>
       </defs>
       <use xlink:href="#DejaVuSans-30"/>
       <use xlink:href="#DejaVuSans-2e" transform="translate(63.623047 0)"/>
       <use xlink:href="#DejaVuSans-38" transform="translate(95.410156 0)"/>
       <use xlink:href="#DejaVuSans-37" transform="translate(159.033203 0)"/>
       <use xlink:href="#DejaVuSans-35" transform="translate(222.65625 0)"/>
      </g>
     </g>
    </g>
    <g id="ytick_5">
     <g id="line2d_14">
      <g>
       <use xlink:href="#m702c6c6d3b" x="57.6" y="153.848807" style="stroke: #000000; stroke-width: 0.8"/>
      </g>
     </g>
     <g id="text_14">
      <!-- 0.900 -->
      <g transform="translate(21.971875 157.648026) scale(0.1 -0.1)">
       <defs>
        <path id="DejaVuSans-39" d="M 703 97 
L 703 672 
Q 941 559 1184 500 
Q 1428 441 1663 441 
Q 2288 441 2617 861 
Q 2947 1281 2994 2138 
Q 2813 1869 2534 1725 
Q 2256 1581 1919 1581 
Q 1219 1581 811 2004 
Q 403 2428 403 3163 
Q 403 3881 828 4315 
Q 1253 4750 1959 4750 
Q 2769 4750 3195 4129 
Q 3622 3509 3622 2328 
Q 3622 1225 3098 567 
Q 2575 -91 1691 -91 
Q 1453 -91 1209 -44 
Q 966 3 703 97 
z
M 1959 2075 
Q 2384 2075 2632 2365 
Q 2881 2656 2881 3163 
Q 2881 3666 2632 3958 
Q 2384 4250 1959 4250 
Q 1534 4250 1286 3958 
Q 1038 3666 1038 3163 
Q 1038 2656 1286 2365 
Q 1534 2075 1959 2075 
z
" transform="scale(0.015625)"/>
       </defs>
       <use xlink:href="#DejaVuSans-30"/>
       <use xlink:href="#DejaVuSans-2e" transform="translate(63.623047 0)"/>
       <use xlink:href="#DejaVuSans-39" transform="translate(95.410156 0)"/>
       <use xlink:href="#DejaVuSans-30" transform="translate(159.033203 0)"/>
       <use xlink:href="#DejaVuSans-30" transform="translate(222.65625 0)"/>
      </g>
     </g>
    </g>
    <g id="ytick_6">
     <g id="line2d_15">
      <g>
       <use xlink:href="#m702c6c6d3b" x="57.6" y="119.996567" style="stroke: #000000; stroke-width: 0.8"/>
      </g>
     </g>
     <g id="text_15">
      <!-- 0.925 -->
      <g transform="translate(21.971875 123.795786) scale(0.1 -0.1)">
       <use xlink:href="#DejaVuSans-30"/>
       <use xlink:href="#DejaVuSans-2e" transform="translate(63.623047 0)"/>
       <use xlink:href="#DejaVuSans-39" transform="translate(95.410156 0)"/>
       <use xlink:href="#DejaVuSans-32" transform="translate(159.033203 0)"/>
       <use xlink:href="#DejaVuSans-35" transform="translate(222.65625 0)"/>
      </g>
     </g>
    </g>
    <g id="ytick_7">
     <g id="line2d_16">
      <g>
       <use xlink:href="#m702c6c6d3b" x="57.6" y="86.144327" style="stroke: #000000; stroke-width: 0.8"/>
      </g>
     </g>
     <g id="text_16">
      <!-- 0.950 -->
      <g transform="translate(21.971875 89.943546) scale(0.1 -0.1)">
       <use xlink:href="#DejaVuSans-30"/>
       <use xlink:href="#DejaVuSans-2e" transform="translate(63.623047 0)"/>
       <use xlink:href="#DejaVuSans-39" transform="translate(95.410156 0)"/>
       <use xlink:href="#DejaVuSans-35" transform="translate(159.033203 0)"/>
       <use xlink:href="#DejaVuSans-30" transform="translate(222.65625 0)"/>
      </g>
     </g>
    </g>
    <g id="ytick_8">
     <g id="line2d_17">
      <g>
       <use xlink:href="#m702c6c6d3b" x="57.6" y="52.292087" style="stroke: #000000; stroke-width: 0.8"/>
      </g>
     </g>
     <g id="text_17">
      <!-- 0.975 -->
      <g transform="translate(21.971875 56.091306) scale(0.1 -0.1)">
       <use xlink:href="#DejaVuSans-30"/>
       <use xlink:href="#DejaVuSans-2e" transform="translate(63.623047 0)"/>
       <use xlink:href="#DejaVuSans-39" transform="translate(95.410156 0)"/>
       <use xlink:href="#DejaVuSans-37" transform="translate(159.033203 0)"/>
       <use xlink:href="#DejaVuSans-35" transform="translate(222.65625 0)"/>
      </g>
     </g>
    </g>
   </g>
   <g id="line2d_18">
    <path d="M 73.832727 53.568 
L 74.680389 141.056865 
L 75.528051 135.754539 
L 76.375713 131.777713 
L 78.918699 121.835852 
L 80.614023 116.533445 
L 81.461685 117.859027 
L 82.309347 115.207864 
L 83.157009 110.568328 
L 84.004671 107.917165 
L 86.547657 101.951968 
L 87.395319 100.626386 
L 88.242981 98.638014 
L 89.090643 97.312432 
L 90.785967 93.335688 
L 94.176615 88.033281 
L 95.024277 87.37049 
L 95.871939 86.044909 
L 99.262587 83.393746 
L 100.110249 82.068164 
L 101.805573 80.742583 
L 102.653235 80.742583 
L 103.500897 79.417001 
L 104.348559 78.75413 
L 105.196221 78.75413 
L 106.043883 78.091339 
L 106.891545 78.091339 
L 108.586869 76.765757 
L 109.434531 76.765757 
L 110.282193 78.091339 
L 111.977517 76.765757 
L 112.825179 76.765757 
L 113.672841 72.126222 
L 114.520503 74.114594 
L 115.368165 75.440176 
L 116.215827 75.440176 
L 117.063489 76.102967 
L 119.606475 76.102967 
L 120.454137 74.777385 
L 121.301799 74.114594 
L 122.149461 74.777385 
L 122.997123 73.451804 
L 123.844785 72.789013 
L 126.387771 74.777385 
L 127.235433 74.777385 
L 128.083095 75.440176 
L 128.930757 75.440176 
L 129.778419 76.102967 
L 130.626081 76.102967 
L 131.473743 73.451804 
L 132.321405 72.126222 
L 133.169067 72.789013 
L 134.016729 72.789013 
L 134.864391 73.451804 
L 135.712053 73.451804 
L 136.559715 74.114594 
L 138.255039 74.114594 
L 139.102701 74.777385 
L 139.950363 74.777385 
L 140.798025 75.440176 
L 141.645687 74.777385 
L 142.493349 74.777385 
L 143.341011 69.475059 
L 144.188673 71.463431 
L 145.036335 74.114594 
L 145.883997 74.777385 
L 146.731659 76.102967 
L 147.579321 76.765757 
L 148.426983 76.765757 
L 149.274645 77.428548 
L 150.969969 77.428548 
L 151.817631 78.091339 
L 152.665293 77.428548 
L 153.512955 78.091339 
L 154.360617 77.428548 
L 155.208279 77.428548 
L 156.055941 78.091339 
L 156.903603 78.091339 
L 157.751265 79.417001 
L 160.294251 81.405373 
L 161.141913 81.405373 
L 161.989575 79.417001 
L 162.837237 78.091339 
L 163.684899 78.091339 
L 164.532561 78.75413 
L 165.380223 78.75413 
L 167.075547 80.079792 
L 168.770871 80.079792 
L 170.466195 81.405373 
L 171.313857 81.405373 
L 172.161519 80.742583 
L 173.009181 78.75413 
L 173.856843 78.75413 
L 174.704505 79.417001 
L 175.552167 78.75413 
L 177.247491 80.079792 
L 178.095153 80.079792 
L 178.942815 80.742583 
L 179.790477 80.742583 
L 180.638139 81.405373 
L 181.485801 81.405373 
L 182.333463 82.068164 
L 183.181125 80.742583 
L 184.028787 81.405373 
L 184.876449 80.742583 
L 185.724111 80.742583 
L 186.571773 81.405373 
L 187.419435 81.405373 
L 191.657745 84.719327 
L 192.505407 84.056536 
L 193.353069 81.405373 
L 194.200731 81.405373 
L 196.743717 83.393746 
L 197.591379 83.393746 
L 198.439041 84.056536 
L 199.286703 84.056536 
L 201.829689 86.044909 
L 202.677351 86.044909 
L 203.525013 84.056536 
L 204.372675 80.079792 
L 205.220337 79.417001 
L 206.067999 80.742583 
L 206.915661 81.405373 
L 207.763323 82.730955 
L 208.610985 82.730955 
L 210.306309 84.056536 
L 211.153971 84.056536 
L 212.001633 84.719327 
L 216.239943 84.719327 
L 217.087605 86.044909 
L 217.935267 86.707699 
L 218.782929 86.707699 
L 219.630591 87.37049 
L 220.478253 87.37049 
L 222.173577 88.696072 
L 223.868901 88.696072 
L 225.564225 90.021653 
L 227.259549 90.021653 
L 228.107211 90.684444 
L 228.954873 90.684444 
L 230.650197 92.010026 
L 231.497859 92.010026 
L 232.345521 92.672816 
L 233.193183 92.672816 
L 234.040845 93.335688 
L 235.736169 93.335688 
L 236.583831 93.998479 
L 238.279155 93.998479 
L 239.126817 94.661269 
L 239.974479 94.661269 
L 244.212789 97.975223 
L 245.060451 97.975223 
L 248.451099 100.626386 
L 249.298761 100.626386 
L 258.623043 107.917165 
L 259.470705 109.242747 
L 260.318367 109.905538 
L 261.166029 111.231119 
L 262.013691 111.89391 
L 262.861353 113.219491 
L 263.709015 113.882282 
L 265.404339 116.533445 
L 267.099663 117.859027 
L 269.642649 121.835852 
L 270.490311 122.498643 
L 271.337973 123.824224 
L 273.880959 125.812597 
L 274.728621 127.138178 
L 276.423945 128.46376 
L 277.271607 129.789341 
L 278.119269 129.789341 
L 279.814593 131.114923 
L 280.662255 131.114923 
L 281.509917 131.777713 
L 283.205241 134.428957 
L 285.748227 136.417329 
L 286.595889 137.742911 
L 288.291213 139.068492 
L 289.138875 138.405702 
L 290.834199 139.731283 
L 292.529523 142.382446 
L 295.920171 145.033609 
L 296.767833 144.370819 
L 297.615495 145.6964 
L 298.463157 146.359191 
L 300.158481 146.359191 
L 301.006143 147.021982 
L 301.853805 149.010435 
L 302.701467 150.336016 
L 304.396791 151.661598 
L 305.244453 152.987179 
L 306.092115 152.987179 
L 306.939777 151.661598 
L 308.635101 152.987179 
L 309.482763 152.987179 
L 310.330425 154.312761 
L 311.178087 156.301133 
L 312.873411 158.952296 
L 313.721073 160.940749 
L 314.568735 162.266331 
L 315.416397 162.929121 
L 316.264059 162.929121 
L 317.111721 160.277878 
L 317.959383 160.940749 
L 318.807045 162.929121 
L 320.502369 164.254703 
L 321.350031 162.929121 
L 323.045355 168.231447 
L 323.893017 170.21982 
L 324.740679 171.545401 
L 325.588341 173.533774 
L 326.436003 174.859436 
L 327.283665 172.208192 
L 328.131327 170.88261 
L 329.826651 174.859436 
L 330.674313 176.185017 
L 331.521975 178.17339 
L 332.369637 178.17339 
L 333.217299 180.161762 
L 334.064961 180.824553 
L 336.607947 184.801297 
L 337.455609 185.464088 
L 338.303271 186.789669 
L 340.846257 192.754867 
L 341.693919 195.40603 
L 342.541581 196.731612 
L 345.084567 202.696809 
L 345.932229 204.022391 
L 346.779891 206.010763 
L 347.627553 206.673554 
L 348.475215 209.324717 
L 351.018201 215.289914 
L 351.865863 216.615496 
L 352.713525 217.278287 
L 353.561187 219.266659 
L 354.408849 222.580613 
L 355.256511 225.231776 
L 356.951835 229.208601 
L 357.799497 229.871392 
L 359.494821 232.522555 
L 361.190145 233.848136 
L 362.885469 236.499299 
L 363.733131 238.487672 
L 364.580793 241.801625 
L 365.428455 243.790078 
L 366.276117 245.11566 
L 367.123779 247.104032 
L 367.971441 248.429614 
L 368.819103 249.092405 
L 369.666765 250.417986 
L 370.514427 252.406358 
L 375.600399 260.359928 
L 376.448061 262.348301 
L 378.143385 264.999464 
L 378.991047 265.662254 
L 379.838709 264.336673 
L 380.686371 264.999464 
L 384.077019 272.953033 
L 385.772343 275.604196 
L 386.620005 277.592569 
L 387.467667 278.91815 
L 388.315329 280.906523 
L 389.162991 281.569313 
L 390.010653 279.580941 
L 390.858315 280.243732 
L 391.705977 282.232104 
L 392.553639 282.894976 
L 393.401301 284.883348 
L 394.248963 285.546139 
L 395.944287 290.848465 
L 397.639611 293.499628 
L 398.487273 295.488 
L 398.487273 295.488 
" clip-path="url(#p72890303ca)" style="fill: none; stroke: #1f77b4; stroke-width: 1.5; stroke-linecap: square"/>
   </g>
   <g id="patch_3">
    <path d="M 57.6 307.584 
L 57.6 41.472 
" style="fill: none; stroke: #000000; stroke-width: 0.8; stroke-linejoin: miter; stroke-linecap: square"/>
   </g>
   <g id="patch_4">
    <path d="M 414.72 307.584 
L 414.72 41.472 
" style="fill: none; stroke: #000000; stroke-width: 0.8; stroke-linejoin: miter; stroke-linecap: square"/>
   </g>
   <g id="patch_5">
    <path d="M 57.6 307.584 
L 414.72 307.584 
" style="fill: none; stroke: #000000; stroke-width: 0.8; stroke-linejoin: miter; stroke-linecap: square"/>
   </g>
   <g id="patch_6">
    <path d="M 57.6 41.472 
L 414.72 41.472 
" style="fill: none; stroke: #000000; stroke-width: 0.8; stroke-linejoin: miter; stroke-linecap: square"/>
   </g>
  </g>
 </g>
 <defs>
  <clipPath id="p72890303ca">
   <rect x="57.6" y="41.472" width="357.12" height="266.112"/>
  </clipPath>
 </defs>
</svg>
